<svg width="51" height="52" viewBox="0 0 51 52" fill="none" xmlns="http://www.w3.org/2000/svg">
<rect y="0.69165" width="50.6167" height="50.6167" rx="9.42332" fill="url(#paint0_linear_262_61)"/>
<path fill-rule="evenodd" clip-rule="evenodd" d="M21.5761 13.8439C21.5915 13.8439 21.6072 13.8439 21.6231 13.8439H28.9935C29.0094 13.8439 29.0251 13.8439 29.0405 13.8439C29.2891 13.8438 29.4797 13.8438 29.6463 13.8617C31.1776 14.026 32.3498 15.2834 32.4208 16.8067C33.7673 17.2088 34.7268 18.4547 34.7441 19.8837C35.4238 20.0876 36.0099 20.4093 36.4898 20.9276C37.227 21.7239 37.4555 22.7054 37.4642 23.8518C37.4726 24.9539 37.2762 26.3468 37.0323 28.0764L36.5358 31.5982C36.3452 32.9503 36.1903 34.0488 35.9494 34.9096C35.6973 35.8104 35.3256 36.5515 34.6375 37.1213C33.9549 37.6864 33.145 37.9302 32.1877 38.0451C31.262 38.1561 30.0976 38.1561 28.6477 38.1561H21.9691C20.5192 38.1561 19.3548 38.1561 18.4292 38.0451C17.4719 37.9302 16.662 37.6865 15.9794 37.1213C15.2913 36.5516 14.9196 35.8104 14.6675 34.9096C14.4265 34.0486 14.2716 32.9498 14.0809 31.5973L13.5943 28.1459L13.5845 28.0765C13.3406 26.3468 13.1442 24.954 13.1526 23.8518C13.1613 22.7054 13.3898 21.724 14.127 20.9276C14.6068 20.4094 15.1928 20.0878 15.8722 19.8838C15.8895 18.4547 16.8491 17.2087 18.1958 16.8067C18.2669 15.2835 19.4389 14.026 20.9702 13.8617M19.9169 16.6709C20.0373 16.0787 20.529 15.615 21.1512 15.5482C21.2148 15.5414 21.3056 15.5401 21.6231 15.5401H28.9935C29.311 15.5401 29.4017 15.5414 29.4653 15.5482C30.0875 15.615 30.5793 16.0788 30.6997 16.6709H19.9169ZM17.6066 19.5859C18.6535 19.4979 19.9368 19.4979 21.4817 19.4979H29.1351C30.6798 19.4979 31.963 19.4979 33.0098 19.5859C32.8547 18.8988 32.2409 18.3671 31.4845 18.3671H19.1319C18.3755 18.3671 17.7617 18.8988 17.6066 19.5859ZM21.5761 13.8439C21.3275 13.8438 21.1368 13.8438 20.9702 13.8617ZM17.2301 21.3314C16.2293 21.4645 15.7143 21.7099 15.3717 22.0799C15.0372 22.4413 14.8558 22.9331 14.8488 23.8647C14.8415 24.826 15.0179 26.0936 15.2739 27.9091L15.7522 31.3015C15.9532 32.7273 16.094 33.7132 16.3009 34.4524C16.5002 35.1643 16.7347 35.5445 17.0611 35.8148C17.393 36.0896 17.8386 36.2658 18.6313 36.3609C19.444 36.4585 20.5065 36.4599 22.0239 36.4599H28.5929C30.1104 36.4599 31.1728 36.4585 31.9856 36.3609C32.7783 36.2658 33.2239 36.0895 33.5558 35.8148C33.8822 35.5445 34.1167 35.1642 34.3159 34.4524C34.5228 33.7132 34.6636 32.7273 34.8646 31.3015L35.343 27.9091C35.5989 26.0936 35.7754 24.826 35.7681 23.8647C35.761 22.933 35.5797 22.4413 35.2451 22.0799C34.9026 21.7099 34.3875 21.4645 33.3867 21.3314C32.3677 21.1959 31.0036 21.1941 29.0713 21.1941H21.5456C19.6132 21.1941 18.2492 21.1959 17.2301 21.3314Z" fill="white"/>
<path d="M27.0676 28.0586H23.5497C23.0643 28.0586 22.6703 28.4738 22.6703 28.9864C22.6703 29.4986 23.0643 29.9138 23.5497 29.9138H27.0676C27.553 29.9138 27.947 29.4986 27.947 28.9864C27.947 28.4738 27.5535 28.0586 27.0676 28.0586Z" fill="white"/>
<path d="M17.3931 28.9864C17.3931 27.9617 18.1806 27.1308 19.152 27.1308C20.1238 27.1308 20.9109 27.9617 20.9109 28.9864C20.9109 30.0112 20.1234 30.8421 19.152 30.8421C18.1806 30.8421 17.3931 30.0112 17.3931 28.9864Z" fill="white"/>
<path d="M29.7064 28.9864C29.7064 27.9617 30.494 27.1308 31.4653 27.1308C32.4367 27.1308 33.2242 27.9617 33.2242 28.9864C33.2242 30.0112 32.4367 30.8421 31.4653 30.8421C30.494 30.8421 29.7064 30.0112 29.7064 28.9864Z" fill="white"/>
<path d="M0 10.115C0 4.91062 4.21897 0.69165 9.42332 0.69165H41.1934C46.3977 0.69165 50.6167 4.91062 50.6167 10.115V41.885C50.6167 47.0894 46.3977 51.3083 41.1934 51.3083H9.42332C4.21897 51.3083 0 47.0894 0 41.885V10.115Z" fill="url(#paint1_linear_262_61)"/>
<path fill-rule="evenodd" clip-rule="evenodd" d="M21.5761 13.8439C21.5915 13.8439 21.6072 13.8439 21.6231 13.8439H28.9935C29.0094 13.8439 29.0251 13.8439 29.0405 13.8439C29.2891 13.8438 29.4797 13.8438 29.6463 13.8617C31.1776 14.026 32.3498 15.2834 32.4208 16.8067C33.7673 17.2088 34.7268 18.4547 34.7441 19.8837C35.4238 20.0876 36.0099 20.4093 36.4898 20.9276C37.227 21.7239 37.4555 22.7054 37.4642 23.8518C37.4726 24.9539 37.2762 26.3468 37.0323 28.0764L36.5358 31.5982C36.3452 32.9503 36.1903 34.0488 35.9494 34.9096C35.6973 35.8104 35.3256 36.5515 34.6375 37.1213C33.9549 37.6864 33.145 37.9302 32.1877 38.0451C31.262 38.1561 30.0976 38.1561 28.6477 38.1561H21.9691C20.5192 38.1561 19.3548 38.1561 18.4292 38.0451C17.4719 37.9302 16.662 37.6865 15.9794 37.1213C15.2913 36.5516 14.9196 35.8104 14.6675 34.9096C14.4265 34.0486 14.2716 32.9498 14.0809 31.5973L13.5943 28.1459L13.5845 28.0765C13.3406 26.3468 13.1442 24.954 13.1526 23.8518C13.1613 22.7054 13.3898 21.724 14.127 20.9276C14.6068 20.4094 15.1928 20.0878 15.8722 19.8838C15.8895 18.4547 16.8491 17.2087 18.1958 16.8067C18.2669 15.2835 19.4389 14.026 20.9702 13.8617M19.9169 16.6709C20.0373 16.0787 20.529 15.615 21.1512 15.5482C21.2148 15.5414 21.3056 15.5401 21.6231 15.5401H28.9935C29.311 15.5401 29.4017 15.5414 29.4653 15.5482C30.0875 15.615 30.5793 16.0788 30.6997 16.6709H19.9169ZM17.6066 19.5859C18.6535 19.4979 19.9368 19.4979 21.4817 19.4979H29.1351C30.6798 19.4979 31.963 19.4979 33.0098 19.5859C32.8547 18.8988 32.2409 18.3671 31.4845 18.3671H19.1319C18.3755 18.3671 17.7617 18.8988 17.6066 19.5859ZM21.5761 13.8439C21.3275 13.8438 21.1368 13.8438 20.9702 13.8617ZM17.2301 21.3314C16.2293 21.4645 15.7143 21.7099 15.3717 22.0799C15.0372 22.4413 14.8558 22.9331 14.8488 23.8647C14.8415 24.826 15.0179 26.0936 15.2739 27.9091L15.7522 31.3015C15.9532 32.7273 16.094 33.7132 16.3009 34.4524C16.5002 35.1643 16.7347 35.5445 17.0611 35.8148C17.393 36.0896 17.8386 36.2658 18.6313 36.3609C19.444 36.4585 20.5065 36.4599 22.0239 36.4599H28.5929C30.1104 36.4599 31.1728 36.4585 31.9856 36.3609C32.7783 36.2658 33.2239 36.0895 33.5558 35.8148C33.8822 35.5445 34.1167 35.1642 34.3159 34.4524C34.5228 33.7132 34.6636 32.7273 34.8646 31.3015L35.343 27.9091C35.5989 26.0936 35.7754 24.826 35.7681 23.8647C35.761 22.933 35.5797 22.4413 35.2451 22.0799C34.9026 21.7099 34.3875 21.4645 33.3867 21.3314C32.3677 21.1959 31.0036 21.1941 29.0713 21.1941H21.5456C19.6132 21.1941 18.2492 21.1959 17.2301 21.3314Z" fill="white"/>
<path d="M27.0676 28.0586H23.5497C23.0643 28.0586 22.6703 28.4738 22.6703 28.9864C22.6703 29.4986 23.0643 29.9138 23.5497 29.9138H27.0676C27.553 29.9138 27.947 29.4986 27.947 28.9864C27.947 28.4738 27.5535 28.0586 27.0676 28.0586Z" fill="white"/>
<path d="M17.3931 28.9864C17.3931 27.9617 18.1806 27.1308 19.152 27.1308C20.1238 27.1308 20.9109 27.9617 20.9109 28.9864C20.9109 30.0112 20.1234 30.8421 19.152 30.8421C18.1806 30.8421 17.3931 30.0112 17.3931 28.9864Z" fill="white"/>
<path d="M29.7064 28.9864C29.7064 27.9617 30.494 27.1308 31.4653 27.1308C32.4367 27.1308 33.2242 27.9617 33.2242 28.9864C33.2242 30.0112 32.4367 30.8421 31.4653 30.8421C30.494 30.8421 29.7064 30.0112 29.7064 28.9864Z" fill="white"/>
<defs>
<linearGradient id="paint0_linear_262_61" x1="25.3083" y1="0.69165" x2="25.3084" y2="98.6942" gradientUnits="userSpaceOnUse">
<stop offset="0.118679" stop-color="#F4012D"/>
<stop offset="0.224763" stop-color="#F20130"/>
<stop offset="0.971068" stop-color="#6B08EA"/>
</linearGradient>
<linearGradient id="paint1_linear_262_61" x1="25.3083" y1="0.69165" x2="25.3084" y2="98.6942" gradientUnits="userSpaceOnUse">
<stop offset="0.118679" stop-color="#F4012D"/>
<stop offset="0.224763" stop-color="#F20130"/>
<stop offset="0.971068" stop-color="#6B08EA"/>
</linearGradient>
</defs>
</svg>
