<svg width="95" height="123" viewBox="0 0 95 123" fill="none" xmlns="http://www.w3.org/2000/svg">
<rect x="0.5" width="94" height="94" rx="17.5" fill="url(#paint0_linear_89_112)"/>
<path fill-rule="evenodd" clip-rule="evenodd" d="M40.5687 24.425C40.5974 24.425 40.6265 24.425 40.6561 24.425H54.3435C54.3731 24.425 54.4022 24.425 54.4309 24.425C54.8925 24.4249 55.2465 24.4248 55.5559 24.458C58.3996 24.7631 60.5765 27.0983 60.7084 29.9272C63.2089 30.6739 64.9908 32.9877 65.023 35.6414C66.2851 36.0201 67.3737 36.6175 68.2649 37.58C69.634 39.0589 70.0583 40.8816 70.0745 43.0106C70.09 45.0574 69.7253 47.644 69.2724 50.8561L68.3503 57.3965C67.9963 59.9074 67.7087 61.9473 67.2613 63.5459C66.7931 65.2188 66.1029 66.5951 64.8251 67.6532C63.5573 68.7028 62.0532 69.1555 60.2754 69.3688C58.5564 69.5751 56.3939 69.575 53.7014 69.575H41.2985C38.6061 69.575 36.4436 69.5751 34.7246 69.3688C32.9469 69.1555 31.4429 68.7029 30.1751 67.6533C28.8973 66.5952 28.207 65.2188 27.7388 63.5459C27.2912 61.9469 27.0036 59.9065 26.6495 57.3946L25.7458 50.9852L25.7276 50.8562C25.2747 47.644 24.91 45.0574 24.9255 43.0106C24.9417 40.8816 25.366 39.059 26.7351 37.5801C27.6261 36.6177 28.7144 36.0204 29.9761 35.6417C30.0082 32.9877 31.7903 30.6737 34.2911 29.9271C34.4232 27.0984 36.5998 24.7632 39.4435 24.458M37.4874 29.675C37.7111 28.5753 38.6242 27.714 39.7797 27.59C39.8979 27.5773 40.0663 27.575 40.6561 27.575H54.3435C54.9332 27.575 55.1016 27.5773 55.2197 27.59C56.3753 27.714 57.2885 28.5753 57.5121 29.675H37.4874ZM33.197 35.0884C35.1411 34.9249 37.5245 34.925 40.3935 34.925H54.6065C57.4751 34.925 59.8582 34.9249 61.8022 35.0884C61.5141 33.8124 60.3743 32.825 58.9696 32.825H36.0296C34.6248 32.825 33.485 33.8124 33.197 35.0884ZM40.5687 24.425C40.107 24.4249 39.753 24.4248 39.4435 24.458L40.5687 24.425ZM32.4979 38.33C30.6392 38.5772 29.6827 39.033 29.0466 39.72C28.4253 40.3911 28.0885 41.3044 28.0754 43.0346C28.0619 44.8197 28.3896 47.1739 28.865 50.5454L29.7532 56.8454C30.1265 59.4932 30.388 61.3241 30.7722 62.6968C31.1422 64.0189 31.5777 64.725 32.184 65.227C32.8003 65.7373 33.6278 66.0646 35.0999 66.2412C36.6093 66.4223 38.5823 66.425 41.4003 66.425H53.5997C56.4177 66.425 58.3908 66.4224 59.9001 66.2412C61.3723 66.0646 62.1998 65.7372 62.8162 65.2269C63.4224 64.7249 63.8578 64.0189 64.2278 62.6969C64.612 61.3241 64.8735 59.4932 65.2468 56.8454L66.1351 50.5454C66.6104 47.1739 66.9381 44.8197 66.9246 43.0346C66.9115 41.3044 66.5747 40.3911 65.9534 39.72C65.3173 39.0329 64.3607 38.5772 62.5021 38.33C60.6097 38.0783 58.0765 38.075 54.488 38.075H40.512C36.9235 38.075 34.3903 38.0783 32.4979 38.33Z" fill="white"/>
<path d="M50.7665 50.823H44.2335C43.332 50.823 42.6003 51.5941 42.6003 52.5461C42.6003 53.4972 43.332 54.2682 44.2335 54.2682H50.7665C51.668 54.2682 52.3997 53.4972 52.3997 52.5461C52.3997 51.5941 51.6689 50.823 50.7665 50.823Z" fill="white"/>
<path d="M32.8 52.5461C32.8 50.643 34.2626 49.1 36.0665 49.1C37.8712 49.1 39.333 50.643 39.333 52.5461C39.333 54.4492 37.8704 55.9921 36.0665 55.9921C34.2626 55.9921 32.8 54.4492 32.8 52.5461Z" fill="white"/>
<path d="M55.667 52.5461C55.667 50.643 57.1296 49.1 58.9335 49.1C60.7374 49.1 62.2 50.643 62.2 52.5461C62.2 54.4492 60.7374 55.9921 58.9335 55.9921C57.1296 55.9921 55.667 54.4492 55.667 52.5461Z" fill="white"/>
<path d="M0.5 17.5C0.5 7.83502 8.33502 0 18 0H77C86.665 0 94.5 7.83502 94.5 17.5V76.5C94.5 86.165 86.665 94 77 94H18C8.33502 94 0.5 86.165 0.5 76.5V17.5Z" fill="url(#paint1_linear_89_112)"/>
<path fill-rule="evenodd" clip-rule="evenodd" d="M40.5687 24.425C40.5974 24.425 40.6265 24.425 40.6561 24.425H54.3435C54.3731 24.425 54.4022 24.425 54.4309 24.425C54.8925 24.4249 55.2465 24.4248 55.5559 24.458C58.3996 24.7631 60.5765 27.0983 60.7084 29.9272C63.2089 30.6739 64.9908 32.9877 65.023 35.6414C66.2851 36.0201 67.3737 36.6175 68.2649 37.58C69.634 39.0589 70.0583 40.8816 70.0745 43.0106C70.09 45.0574 69.7253 47.644 69.2724 50.8561L68.3503 57.3965C67.9963 59.9074 67.7087 61.9473 67.2613 63.5459C66.7931 65.2188 66.1029 66.5951 64.8251 67.6532C63.5573 68.7028 62.0532 69.1555 60.2754 69.3688C58.5564 69.5751 56.3939 69.575 53.7014 69.575H41.2985C38.6061 69.575 36.4436 69.5751 34.7246 69.3688C32.9469 69.1555 31.4429 68.7029 30.1751 67.6533C28.8973 66.5952 28.207 65.2188 27.7388 63.5459C27.2912 61.9469 27.0036 59.9065 26.6495 57.3946L25.7458 50.9852L25.7276 50.8562C25.2747 47.644 24.91 45.0574 24.9255 43.0106C24.9417 40.8816 25.366 39.059 26.7351 37.5801C27.6261 36.6177 28.7144 36.0204 29.9761 35.6417C30.0082 32.9877 31.7903 30.6737 34.2911 29.9271C34.4232 27.0984 36.5998 24.7632 39.4435 24.458M37.4874 29.675C37.7111 28.5753 38.6242 27.714 39.7797 27.59C39.8979 27.5773 40.0663 27.575 40.6561 27.575H54.3435C54.9332 27.575 55.1016 27.5773 55.2197 27.59C56.3753 27.714 57.2885 28.5753 57.5121 29.675H37.4874ZM33.197 35.0884C35.1411 34.9249 37.5245 34.925 40.3935 34.925H54.6065C57.4751 34.925 59.8582 34.9249 61.8022 35.0884C61.5141 33.8124 60.3743 32.825 58.9696 32.825H36.0296C34.6248 32.825 33.485 33.8124 33.197 35.0884ZM40.5687 24.425C40.107 24.4249 39.753 24.4248 39.4435 24.458L40.5687 24.425ZM32.4979 38.33C30.6392 38.5772 29.6827 39.033 29.0466 39.72C28.4253 40.3911 28.0885 41.3044 28.0754 43.0346C28.0619 44.8197 28.3896 47.1739 28.865 50.5454L29.7532 56.8454C30.1265 59.4932 30.388 61.3241 30.7722 62.6968C31.1422 64.0189 31.5777 64.725 32.184 65.227C32.8003 65.7373 33.6278 66.0646 35.0999 66.2412C36.6093 66.4223 38.5823 66.425 41.4003 66.425H53.5997C56.4177 66.425 58.3908 66.4224 59.9001 66.2412C61.3723 66.0646 62.1998 65.7372 62.8162 65.2269C63.4224 64.7249 63.8578 64.0189 64.2278 62.6969C64.612 61.3241 64.8735 59.4932 65.2468 56.8454L66.1351 50.5454C66.6104 47.1739 66.9381 44.8197 66.9246 43.0346C66.9115 41.3044 66.5747 40.3911 65.9534 39.72C65.3173 39.0329 64.3607 38.5772 62.5021 38.33C60.6097 38.0783 58.0765 38.075 54.488 38.075H40.512C36.9235 38.075 34.3903 38.0783 32.4979 38.33Z" fill="white"/>
<path d="M50.7665 50.823H44.2335C43.332 50.823 42.6003 51.5941 42.6003 52.5461C42.6003 53.4972 43.332 54.2682 44.2335 54.2682H50.7665C51.668 54.2682 52.3997 53.4972 52.3997 52.5461C52.3997 51.5941 51.6689 50.823 50.7665 50.823Z" fill="white"/>
<path d="M32.8 52.5461C32.8 50.643 34.2626 49.1 36.0665 49.1C37.8712 49.1 39.333 50.643 39.333 52.5461C39.333 54.4492 37.8704 55.9921 36.0665 55.9921C34.2626 55.9921 32.8 54.4492 32.8 52.5461Z" fill="white"/>
<path d="M55.667 52.5461C55.667 50.643 57.1296 49.1 58.9335 49.1C60.7374 49.1 62.2 50.643 62.2 52.5461C62.2 54.4492 60.7374 55.9921 58.9335 55.9921C57.1296 55.9921 55.667 54.4492 55.667 52.5461Z" fill="white"/>
<path d="M14.2455 111.314H12.2727C12.1561 110.746 11.9519 110.248 11.6602 109.818C11.3739 109.389 11.0239 109.028 10.6102 108.736C10.2019 108.439 9.74848 108.217 9.25 108.068C8.75152 107.92 8.23182 107.845 7.69091 107.845C6.70455 107.845 5.81098 108.095 5.01023 108.593C4.21477 109.092 3.58106 109.826 3.10909 110.797C2.64242 111.767 2.40909 112.958 2.40909 114.368C2.40909 115.779 2.64242 116.969 3.10909 117.94C3.58106 118.91 4.21477 119.645 5.01023 120.143C5.81098 120.642 6.70455 120.891 7.69091 120.891C8.23182 120.891 8.75152 120.817 9.25 120.668C9.74848 120.52 10.2019 120.3 10.6102 120.008C11.0239 119.711 11.3739 119.348 11.6602 118.918C11.9519 118.483 12.1561 117.985 12.2727 117.423H14.2455C14.097 118.255 13.8265 119 13.4341 119.658C13.0417 120.316 12.5538 120.875 11.9705 121.336C11.3871 121.792 10.7322 122.14 10.0057 122.378C9.28447 122.617 8.51288 122.736 7.69091 122.736C6.30152 122.736 5.06591 122.397 3.98409 121.718C2.90227 121.039 2.05114 120.074 1.43068 118.823C0.810227 117.571 0.5 116.086 0.5 114.368C0.5 112.65 0.810227 111.165 1.43068 109.914C2.05114 108.662 2.90227 107.697 3.98409 107.018C5.06591 106.339 6.30152 106 7.69091 106C8.51288 106 9.28447 106.119 10.0057 106.358C10.7322 106.597 11.3871 106.947 11.9705 107.408C12.5538 107.864 13.0417 108.421 13.4341 109.078C13.8265 109.731 14.097 110.476 14.2455 111.314Z" fill="#11152B"/>
<path d="M22.1423 122.768C21.0393 122.768 20.0715 122.506 19.2389 121.981C18.4116 121.456 17.7647 120.721 17.298 119.777C16.8366 118.833 16.606 117.73 16.606 116.468C16.606 115.195 16.8366 114.084 17.298 113.135C17.7647 112.186 18.4116 111.449 19.2389 110.924C20.0715 110.399 21.0393 110.136 22.1423 110.136C23.2454 110.136 24.2105 110.399 25.0378 110.924C25.8704 111.449 26.5173 112.186 26.9787 113.135C27.4454 114.084 27.6787 115.195 27.6787 116.468C27.6787 117.73 27.4454 118.833 26.9787 119.777C26.5173 120.721 25.8704 121.456 25.0378 121.981C24.2105 122.506 23.2454 122.768 22.1423 122.768ZM22.1423 121.082C22.9802 121.082 23.6696 120.867 24.2105 120.438C24.7514 120.008 25.1518 119.443 25.4116 118.743C25.6715 118.043 25.8014 117.285 25.8014 116.468C25.8014 115.652 25.6715 114.891 25.4116 114.185C25.1518 113.48 24.7514 112.91 24.2105 112.475C23.6696 112.04 22.9802 111.823 22.1423 111.823C21.3045 111.823 20.6151 112.04 20.0741 112.475C19.5332 112.91 19.1329 113.48 18.873 114.185C18.6132 114.891 18.4832 115.652 18.4832 116.468C18.4832 117.285 18.6132 118.043 18.873 118.743C19.1329 119.443 19.5332 120.008 20.0741 120.438C20.6151 120.867 21.3045 121.082 22.1423 121.082Z" fill="#11152B"/>
<path d="M35.508 122.768C34.4049 122.768 33.4371 122.506 32.6045 121.981C31.7773 121.456 31.1303 120.721 30.6636 119.777C30.2023 118.833 29.9716 117.73 29.9716 116.468C29.9716 115.195 30.2023 114.084 30.6636 113.135C31.1303 112.186 31.7773 111.449 32.6045 110.924C33.4371 110.399 34.4049 110.136 35.508 110.136C36.611 110.136 37.5761 110.399 38.4034 110.924C39.236 111.449 39.883 112.186 40.3443 113.135C40.811 114.084 41.0443 115.195 41.0443 116.468C41.0443 117.73 40.811 118.833 40.3443 119.777C39.883 120.721 39.236 121.456 38.4034 121.981C37.5761 122.506 36.611 122.768 35.508 122.768ZM35.508 121.082C36.3458 121.082 37.0352 120.867 37.5761 120.438C38.117 120.008 38.5174 119.443 38.7773 118.743C39.0371 118.043 39.167 117.285 39.167 116.468C39.167 115.652 39.0371 114.891 38.7773 114.185C38.5174 113.48 38.117 112.91 37.5761 112.475C37.0352 112.04 36.3458 111.823 35.508 111.823C34.6701 111.823 33.9807 112.04 33.4398 112.475C32.8989 112.91 32.4985 113.48 32.2386 114.185C31.9788 114.891 31.8489 115.652 31.8489 116.468C31.8489 117.285 31.9788 118.043 32.2386 118.743C32.4985 119.443 32.8989 120.008 33.4398 120.438C33.9807 120.867 34.6701 121.082 35.508 121.082Z" fill="#11152B"/>
<path d="M45.7872 106.223V122.514H43.9099V106.223H45.7872Z" fill="#11152B"/>
<path d="M54.1077 122.514V106.223H60.6304C61.8289 106.223 62.8285 106.4 63.6293 106.756C64.43 107.111 65.0319 107.604 65.4349 108.235C65.838 108.861 66.0395 109.582 66.0395 110.399C66.0395 111.035 65.9122 111.595 65.6577 112.077C65.4031 112.555 65.0531 112.947 64.6077 113.255C64.1675 113.557 63.6637 113.772 63.0963 113.899V114.058C63.7168 114.084 64.2974 114.259 64.8383 114.583C65.3846 114.906 65.8274 115.36 66.1668 115.943C66.5062 116.521 66.6758 117.211 66.6758 118.011C66.6758 118.876 66.4611 119.647 66.0315 120.326C65.6073 121 64.9789 121.533 64.1463 121.925C63.3137 122.317 62.2876 122.514 61.0679 122.514H54.1077ZM57.552 119.698H60.3599C61.3198 119.698 62.0198 119.515 62.4599 119.149C62.9001 118.778 63.1202 118.284 63.1202 117.669C63.1202 117.219 63.0115 116.821 62.794 116.476C62.5766 116.131 62.2664 115.861 61.8633 115.665C61.4656 115.469 60.991 115.37 60.4395 115.37H57.552V119.698ZM57.552 113.04H60.1054C60.5774 113.04 60.9963 112.958 61.3622 112.793C61.7334 112.623 62.0251 112.385 62.2372 112.077C62.4546 111.77 62.5634 111.401 62.5634 110.972C62.5634 110.383 62.3539 109.908 61.9349 109.548C61.5213 109.187 60.9327 109.007 60.169 109.007H57.552V113.04Z" fill="#11152B"/>
<path d="M74.3739 122.752C73.1383 122.752 72.0697 122.49 71.1682 121.965C70.272 121.434 69.5799 120.697 69.092 119.753C68.6042 118.804 68.3602 117.704 68.3602 116.452C68.3602 115.19 68.6042 114.087 69.092 113.143C69.5799 112.194 70.272 111.457 71.1682 110.932C72.0697 110.402 73.1383 110.136 74.3739 110.136C75.6095 110.136 76.6754 110.402 77.5716 110.932C78.4731 111.457 79.1678 112.194 79.6557 113.143C80.1436 114.087 80.3875 115.19 80.3875 116.452C80.3875 117.704 80.1436 118.804 79.6557 119.753C79.1678 120.697 78.4731 121.434 77.5716 121.965C76.6754 122.49 75.6095 122.752 74.3739 122.752ZM74.3898 120.127C74.9519 120.127 75.4212 119.968 75.7977 119.65C76.1742 119.327 76.458 118.886 76.6489 118.33C76.8451 117.773 76.9432 117.139 76.9432 116.428C76.9432 115.718 76.8451 115.084 76.6489 114.527C76.458 113.97 76.1742 113.53 75.7977 113.207C75.4212 112.883 74.9519 112.722 74.3898 112.722C73.8223 112.722 73.3451 112.883 72.958 113.207C72.5761 113.53 72.2871 113.97 72.0909 114.527C71.9 115.084 71.8046 115.718 71.8046 116.428C71.8046 117.139 71.9 117.773 72.0909 118.33C72.2871 118.886 72.5761 119.327 72.958 119.65C73.3451 119.968 73.8223 120.127 74.3898 120.127Z" fill="#11152B"/>
<path d="M84.9852 110.295L87.2284 114.567L89.5273 110.295H93.0034L89.4636 116.405L93.0989 122.514H89.6386L87.2284 118.29L84.8579 122.514H81.3579L84.9852 116.405L81.4852 110.295H84.9852Z" fill="#11152B"/>
<defs>
<linearGradient id="paint0_linear_89_112" x1="47.5" y1="-9.23873e-07" x2="47.5" y2="182" gradientUnits="userSpaceOnUse">
<stop offset="0.118679" stop-color="#F4012D"/>
<stop offset="0.224763" stop-color="#F20130"/>
<stop offset="0.971068" stop-color="#6B08EA"/>
</linearGradient>
<linearGradient id="paint1_linear_89_112" x1="47.5" y1="-9.23873e-07" x2="47.5" y2="182" gradientUnits="userSpaceOnUse">
<stop offset="0.118679" stop-color="#F4012D"/>
<stop offset="0.224763" stop-color="#F20130"/>
<stop offset="0.971068" stop-color="#6B08EA"/>
</linearGradient>
</defs>
</svg>
